<mxfile host="app.diagrams.net" modified="2023-06-01T12:28:32.745Z" agent="Mozilla/5.0 (Windows NT 10.0; Win64; x64) AppleWebKit/537.36 (KHTML, like Gecko) Chrome/114.0.0.0 Safari/537.36" version="21.3.6" etag="r8vZEntLnK24Yy5JIhis" type="github">
  <diagram name="Page-1" id="TSeFvMI9SIae3FSerJpS">
    <mxGraphModel>
      <root>
        <mxCell id="0" />
        <mxCell id="1" parent="0" />
      </root>
    </mxGraphModel>
  </diagram>
</mxfile>
